# xmcd
#
# Track frame offsets: 
#        150
#        14705
#        31715
#        42705
#        55052
#        68810
#        80705
#        94987
#        109332
#        123655
#        136537
#        147487
#
# Disc length: 2157 seconds
#
# Revision: 2
# Processed by: cddbd v1.5PL3 Copyright (c) Steve Scherf et al.
# Submitted via: ExactAudioCopy v0.95a5
#
DISCID=af086b0c
DTITLE=Paquita La Del Barrio - Al cuarto vaso
DYEAR=1999
DGENRE=Ranchera
TTITLE0=Al cuarto vaso
TTITLE1=Como te ves de mal
TTITLE2=El precio de tu amor
TTITLE3=Copa vacía
TTITLE4=Que poco hombre eres
TTITLE5=El rebelde
TTITLE6=Un amor a mi medida
TTITLE7=Animas que no amanezca
TTITLE8=Mis ojos me denuncian
TTITLE9=Paloma sin nido
TTITLE10=Amor barato
TTITLE11=No te pases de vivo
EXTD=
EXTT0=
EXTT1=
EXTT2=
EXTT3=
EXTT4=
EXTT5=
EXTT6=
EXTT7=
EXTT8=
EXTT9=
EXTT10=
EXTT11=
PLAYORDER=
